<?xml version="1.0" encoding="utf-8"?>
<!-- Generator: Adobe Illustrator 19.1.0, SVG Export Plug-In . SVG Version: 6.00 Build 0)  -->
<svg version="1.1" id="Default" xmlns="http://www.w3.org/2000/svg" xmlns:xlink="http://www.w3.org/1999/xlink" x="0px" y="0px"
	 viewBox="0 0 1853.6 2627.5" style="enable-background:new 0 0 1853.6 2627.5;" xml:space="preserve">
<style type="text/css">
	.st0{fill:none;stroke:#000000;stroke-linecap:round;stroke-linejoin:round;}
</style>
<circle class="st0" cx="1688" cy="109.5" r="5.7"/>
<circle class="st0" cx="192.8" cy="109.5" r="5.7"/>
<rect x="73.6" y="67" class="st0" width="1729.1" height="2466.1"/>
<rect x="163.1" y="945.8" class="st0" width="1554.6" height="708.7"/>
<rect x="163.1" y="152.1" class="st0" width="1554.6" height="708.7"/>
<circle class="st0" cx="1688" cy="903.2" r="5.7"/>
<circle class="st0" cx="192.8" cy="903.2" r="5.7"/>
<circle class="st0" cx="1688" cy="1696.9" r="5.7"/>
<circle class="st0" cx="192.8" cy="1696.9" r="5.7"/>
<circle class="st0" cx="192.7" cy="1782" r="5.7"/>
<circle class="st0" cx="1688" cy="1782" r="5.7"/>
<circle class="st0" cx="192.7" cy="988.3" r="5.7"/>
<circle class="st0" cx="1688" cy="988.3" r="5.7"/>
<circle class="st0" cx="192.7" cy="194.6" r="5.7"/>
<circle class="st0" cx="1688" cy="194.6" r="5.7"/>
<rect x="163.1" y="1739.5" class="st0" width="1554.6" height="708.7"/>
<circle class="st0" cx="1688" cy="109.5" r="5.7"/>
<circle class="st0" cx="192.8" cy="109.5" r="5.7"/>
<rect x="73.6" y="67" class="st0" width="1729.1" height="2466.1"/>
<rect x="163.1" y="945.8" class="st0" width="1554.6" height="708.7"/>
<rect x="163.1" y="152.1" class="st0" width="1554.6" height="708.7"/>
<circle class="st0" cx="1688" cy="903.2" r="5.7"/>
<circle class="st0" cx="192.8" cy="903.2" r="5.7"/>
<circle class="st0" cx="1688" cy="1696.9" r="5.7"/>
<circle class="st0" cx="192.8" cy="1696.9" r="5.7"/>
<circle class="st0" cx="192.7" cy="1782" r="5.7"/>
<circle class="st0" cx="1688" cy="1782" r="5.7"/>
<circle class="st0" cx="192.7" cy="988.3" r="5.7"/>
<circle class="st0" cx="1688" cy="988.3" r="5.7"/>
<circle class="st0" cx="192.7" cy="194.6" r="5.7"/>
<circle class="st0" cx="1688" cy="194.6" r="5.7"/>
<rect x="163.1" y="1739.5" class="st0" width="1554.6" height="708.7"/>
</svg>
